<svg xmlns="http://www.w3.org/2000/svg" viewBox="0 0 24 24" fill="none" stroke="currentColor" stroke-width="1.9" stroke-linecap="round" stroke-linejoin="round">
  <!-- Circle -->
  <circle cx="12" cy="12" r="9" />
  <!-- Notes -->
  <path d="M7.5 7l1.2-.4v2.3a1 1 0 11-1-1" />
  <path d="M16 8.5l1.2-.4v2.3a1 1 0 11-1-1" />
  <!-- Text LIVE -->
  <path d="M8 10V7.8" />
  <path d="M10 10V7.8h1.2" />
  <path d="M12.5 10V7.8h1.4" />
  <path d="M14.5 10l1.6-2.8" />
  <!-- Text MUSIC -->
  <path d="M8.7 14.8V12.5l1.2 2.3 1.2-2.3v2.3" />
  <path d="M12 14.8v-2.3" />
  <path d="M13 12.5h1.1v2.3H13" />
  <path d="M15.8 12.5h.9v2.3h-.9" />
  <path d="M17.8 12.5h1v2.3h-1" />
  <!-- Guitar -->
  <path d="M7.5 16.2c1.3-1.2 2.6-1.8 4-1.8 1.5 0 2.8.6 4 1.8" />
  <path d="M11 14.4l4.4-2.2" />
  <circle cx="9.6" cy="16.8" r="0.7" />
  <circle cx="11.7" cy="17" r="0.7" />
</svg>